<?xml version="1.0" ?><svg viewBox="0 0 22.575 22.575" xmlns="http://www.w3.org/2000/svg"><g data-name="Layer 2" id="Layer_2"><g data-name="Layer 1" id="Layer_1-2"><path d="M20.752,15.768v-4.09a4.479,4.479,0,0,0,0-7.165V1.71A1.713,1.713,0,0,0,19.041,0H3.535a1.712,1.712,0,0,0-1.71,1.71V4.239c-.462.177-2.617,2.13-1.483,2.4H4.355L5.194,8.1,4.355,9.549H.342c-1.132.276,1.014,2.219,1.483,2.4v3.815L.036,19.344A.338.338,0,0,0,0,19.5v1.368a1.712,1.712,0,0,0,1.71,1.71H20.865a1.712,1.712,0,0,0,1.71-1.71V19.5a.338.338,0,0,0-.036-.153ZM2.509,1.71A1.027,1.027,0,0,1,3.535.684H19.041A1.027,1.027,0,0,1,20.067,1.71V4.1a4.459,4.459,0,0,0-5.508,1.345H7.6a4.444,4.444,0,0,0-5.089-1.52ZM.936,10.233H4.552a.341.341,0,0,0,.3-.171l1.037-1.8a.342.342,0,0,0,0-.342l-1.037-1.8a.341.341,0,0,0-.3-.171H.936a3.784,3.784,0,0,1,6.2.021.341.341,0,0,0,.283.15h7.313a.342.342,0,0,0,.283-.15,3.763,3.763,0,1,1,0,4.233.342.342,0,0,0-.283-.15H7.422a.341.341,0,0,0-.283.15A3.784,3.784,0,0,1,.936,10.233Zm19.131,1.858v3.415H2.509v-3.24A4.445,4.445,0,0,0,7.6,10.746h6.961A4.46,4.46,0,0,0,20.067,12.091ZM2.378,16.19H20.2l1.482,2.965H.9Zm18.487,5.7H1.71A1.027,1.027,0,0,1,.684,20.865V19.839H21.891v1.026A1.027,1.027,0,0,1,20.865,21.891ZM12.77,20.865a.342.342,0,0,1-.342.342H10.147a.342.342,0,0,1,0-.684h2.281A.342.342,0,0,1,12.77,20.865Zm1.7-18.686c-.317-.309.169-.793.484-.483S14.775,2.5,14.467,2.179Zm1.724-.241a.342.342,0,0,1,.684,0A.342.342,0,0,1,16.191,1.938Zm1.925.241c-.319-.309.172-.793.483-.483S18.424,2.5,18.116,2.179ZM16.8,10.062a.341.341,0,0,0,.3.171h2.074a.343.343,0,0,0,.3-.171l1.037-1.8a.342.342,0,0,0,0-.342l-1.037-1.8a.343.343,0,0,0-.3-.171H17.092a.341.341,0,0,0-.3.171l-1.037,1.8a.342.342,0,0,0,0,.342Zm.493-3.421h1.679L19.807,8.1l-.839,1.453H17.289L16.45,8.1Z" id="maintenance"/></g></g></svg>